<svg width="225" height="23" viewBox="0 0 225 23" fill="none" xmlns="http://www.w3.org/2000/svg">
<path d="M4.808 15V4.2H7.376V15H4.808ZM0.56 10.8V8.4H11.624V10.8H0.56ZM19.1435 18.24C17.9595 18.24 16.7995 18.072 15.6635 17.736C14.5435 17.384 13.5995 16.904 12.8315 16.296L14.1755 13.872C14.7835 14.368 15.5195 14.768 16.3835 15.072C17.2475 15.376 18.1515 15.528 19.0955 15.528C20.2155 15.528 21.0875 15.304 21.7115 14.856C22.3355 14.392 22.6475 13.768 22.6475 12.984C22.6475 12.216 22.3595 11.608 21.7835 11.16C21.2075 10.712 20.2795 10.488 18.9995 10.488H17.4635V8.352L22.2635 2.64L22.6715 3.816H13.6475V1.2H25.0955V3.288L20.2955 9L18.6635 8.04H19.5995C21.6635 8.04 23.2075 8.504 24.2315 9.432C25.2715 10.344 25.7915 11.52 25.7915 12.96C25.7915 13.904 25.5515 14.776 25.0715 15.576C24.5915 16.376 23.8555 17.024 22.8635 17.52C21.8875 18 20.6475 18.24 19.1435 18.24ZM34.6963 18.24C33.3043 18.24 32.0962 18.032 31.0723 17.616C30.0482 17.2 29.2562 16.616 28.6962 15.864C28.1362 15.096 27.8562 14.2 27.8562 13.176C27.8562 12.152 28.1282 11.288 28.6722 10.584C29.2162 9.88 30.0002 9.344 31.0242 8.976C32.0483 8.608 33.2723 8.424 34.6963 8.424C36.1203 8.424 37.3443 8.608 38.3683 8.976C39.4083 9.344 40.2003 9.888 40.7443 10.608C41.3043 11.312 41.5843 12.168 41.5843 13.176C41.5843 14.2 41.2963 15.096 40.7203 15.864C40.1603 16.616 39.3602 17.2 38.3203 17.616C37.2963 18.032 36.0883 18.24 34.6963 18.24ZM34.6963 15.792C35.8483 15.792 36.7603 15.552 37.4323 15.072C38.1043 14.592 38.4403 13.928 38.4403 13.08C38.4403 12.248 38.1043 11.592 37.4323 11.112C36.7603 10.632 35.8483 10.392 34.6963 10.392C33.5443 10.392 32.6403 10.632 31.9843 11.112C31.3282 11.592 31.0002 12.248 31.0002 13.08C31.0002 13.928 31.3282 14.592 31.9843 15.072C32.6403 15.552 33.5443 15.792 34.6963 15.792ZM34.6963 10.056C33.4003 10.056 32.2883 9.888 31.3602 9.552C30.4322 9.2 29.7122 8.696 29.2002 8.04C28.7042 7.368 28.4562 6.568 28.4562 5.64C28.4562 4.68 28.7122 3.856 29.2242 3.168C29.7522 2.464 30.4883 1.92 31.4323 1.536C32.3763 1.152 33.4643 0.959999 34.6963 0.959999C35.9443 0.959999 37.0403 1.152 37.9843 1.536C38.9283 1.92 39.6643 2.464 40.1923 3.168C40.7203 3.856 40.9843 4.68 40.9843 5.64C40.9843 6.568 40.7283 7.368 40.2162 8.04C39.7203 8.696 39.0003 9.2 38.0563 9.552C37.1123 9.888 35.9923 10.056 34.6963 10.056ZM34.6963 8.136C35.6883 8.136 36.4723 7.928 37.0482 7.512C37.6243 7.08 37.9123 6.504 37.9123 5.784C37.9123 5.032 37.6163 4.448 37.0243 4.032C36.4323 3.616 35.6563 3.408 34.6963 3.408C33.7363 3.408 32.9683 3.616 32.3923 4.032C31.8162 4.448 31.5282 5.032 31.5282 5.784C31.5282 6.504 31.8082 7.08 32.3683 7.512C32.9442 7.928 33.7202 8.136 34.6963 8.136Z" fill="black"/>
<path d="M54.3693 22.656C53.4253 21.2 52.6973 19.52 52.1853 17.616C51.6893 15.696 51.4413 13.632 51.4413 11.424C51.4413 9.216 51.6893 7.152 52.1853 5.232C52.6973 3.296 53.4253 1.616 54.3693 0.191999H57.2253C56.2493 1.952 55.5293 3.752 55.0653 5.592C54.6173 7.416 54.3933 9.36 54.3933 11.424C54.3933 13.488 54.6173 15.44 55.0653 17.28C55.5293 19.104 56.2493 20.896 57.2253 22.656H54.3693ZM65.9296 18.24C64.6016 18.24 63.4016 17.904 62.3296 17.232C61.2736 16.56 60.4416 15.584 59.8336 14.304C59.2256 13.008 58.9216 11.44 58.9216 9.6C58.9216 7.76 59.2256 6.2 59.8336 4.92C60.4416 3.624 61.2736 2.64 62.3296 1.968C63.4016 1.296 64.6016 0.959999 65.9296 0.959999C67.2736 0.959999 68.4736 1.296 69.5296 1.968C70.5856 2.64 71.4176 3.624 72.0256 4.92C72.6496 6.2 72.9616 7.76 72.9616 9.6C72.9616 11.44 72.6496 13.008 72.0256 14.304C71.4176 15.584 70.5856 16.56 69.5296 17.232C68.4736 17.904 67.2736 18.24 65.9296 18.24ZM65.9296 15.528C66.7136 15.528 67.3936 15.32 67.9696 14.904C68.5456 14.472 68.9936 13.816 69.3136 12.936C69.6496 12.056 69.8176 10.944 69.8176 9.6C69.8176 8.24 69.6496 7.128 69.3136 6.264C68.9936 5.384 68.5456 4.736 67.9696 4.32C67.3936 3.888 66.7136 3.672 65.9296 3.672C65.1776 3.672 64.5056 3.888 63.9136 4.32C63.3376 4.736 62.8816 5.384 62.5456 6.264C62.2256 7.128 62.0656 8.24 62.0656 9.6C62.0656 10.944 62.2256 12.056 62.5456 12.936C62.8816 13.816 63.3376 14.472 63.9136 14.904C64.5056 15.32 65.1776 15.528 65.9296 15.528ZM80.8541 0.959999C82.3901 0.959999 83.6941 1.288 84.7661 1.944C85.8541 2.584 86.6861 3.52 87.2621 4.752C87.8381 5.984 88.1261 7.504 88.1261 9.312C88.1261 11.232 87.7741 12.856 87.0701 14.184C86.3821 15.512 85.4221 16.52 84.1901 17.208C82.9581 17.896 81.5261 18.24 79.8941 18.24C79.0461 18.24 78.2381 18.152 77.4701 17.976C76.7021 17.8 76.0381 17.528 75.4781 17.16L76.6301 14.808C77.0941 15.112 77.5981 15.328 78.1421 15.456C78.6861 15.568 79.2461 15.624 79.8221 15.624C81.4061 15.624 82.6621 15.136 83.5901 14.16C84.5181 13.184 84.9821 11.744 84.9821 9.84C84.9821 9.536 84.9741 9.184 84.9581 8.784C84.9421 8.368 84.8861 7.952 84.7901 7.536L85.7501 8.592C85.4781 9.248 85.0861 9.8 84.5741 10.248C84.0621 10.68 83.4621 11.008 82.7741 11.232C82.0861 11.456 81.3261 11.568 80.4941 11.568C79.4061 11.568 78.4221 11.36 77.5421 10.944C76.6781 10.512 75.9901 9.912 75.4781 9.144C74.9661 8.36 74.7101 7.448 74.7101 6.408C74.7101 5.288 74.9821 4.328 75.5261 3.528C76.0701 2.712 76.8061 2.08 77.7341 1.632C78.6781 1.184 79.7181 0.959999 80.8541 0.959999ZM81.0221 3.408C80.3821 3.408 79.8141 3.528 79.3181 3.768C78.8221 3.992 78.4301 4.32 78.1421 4.752C77.8701 5.168 77.7341 5.672 77.7341 6.264C77.7341 7.144 78.0381 7.84 78.6461 8.352C79.2541 8.864 80.0701 9.12 81.0941 9.12C81.7661 9.12 82.3581 9 82.8701 8.76C83.3821 8.504 83.7821 8.16 84.0701 7.728C84.3581 7.28 84.5021 6.784 84.5021 6.24C84.5021 5.712 84.3661 5.24 84.0941 4.824C83.8221 4.392 83.4301 4.048 82.9181 3.792C82.4061 3.536 81.7741 3.408 81.0221 3.408ZM93.0477 18L99.9837 2.448L100.8 3.84H91.2717L92.7597 2.328V6.696H89.8557V1.2H102.912V3.288L96.3837 18H93.0477ZM107.289 22.656H104.433C105.425 20.896 106.145 19.104 106.593 17.28C107.057 15.44 107.289 13.488 107.289 11.424C107.289 9.36 107.057 7.416 106.593 5.592C106.145 3.752 105.425 1.952 104.433 0.191999H107.289C108.249 1.616 108.977 3.296 109.473 5.232C109.969 7.152 110.217 9.216 110.217 11.424C110.217 13.632 109.969 15.696 109.473 17.616C108.977 19.52 108.249 21.2 107.289 22.656ZM126.922 18.24C125.53 18.24 124.322 18.032 123.298 17.616C122.274 17.2 121.482 16.616 120.922 15.864C120.362 15.096 120.082 14.2 120.082 13.176C120.082 12.152 120.354 11.288 120.898 10.584C121.442 9.88 122.226 9.344 123.25 8.976C124.274 8.608 125.498 8.424 126.922 8.424C128.346 8.424 129.57 8.608 130.594 8.976C131.634 9.344 132.426 9.888 132.97 10.608C133.53 11.312 133.81 12.168 133.81 13.176C133.81 14.2 133.522 15.096 132.946 15.864C132.386 16.616 131.586 17.2 130.546 17.616C129.522 18.032 128.314 18.24 126.922 18.24ZM126.922 15.792C128.074 15.792 128.986 15.552 129.658 15.072C130.33 14.592 130.666 13.928 130.666 13.08C130.666 12.248 130.33 11.592 129.658 11.112C128.986 10.632 128.074 10.392 126.922 10.392C125.77 10.392 124.866 10.632 124.21 11.112C123.554 11.592 123.226 12.248 123.226 13.08C123.226 13.928 123.554 14.592 124.21 15.072C124.866 15.552 125.77 15.792 126.922 15.792ZM126.922 10.056C125.626 10.056 124.514 9.888 123.586 9.552C122.658 9.2 121.938 8.696 121.426 8.04C120.93 7.368 120.682 6.568 120.682 5.64C120.682 4.68 120.938 3.856 121.45 3.168C121.978 2.464 122.714 1.92 123.658 1.536C124.602 1.152 125.69 0.959999 126.922 0.959999C128.17 0.959999 129.266 1.152 130.21 1.536C131.154 1.92 131.89 2.464 132.418 3.168C132.946 3.856 133.21 4.68 133.21 5.64C133.21 6.568 132.954 7.368 132.442 8.04C131.946 8.696 131.226 9.2 130.282 9.552C129.338 9.888 128.218 10.056 126.922 10.056ZM126.922 8.136C127.914 8.136 128.698 7.928 129.274 7.512C129.85 7.08 130.138 6.504 130.138 5.784C130.138 5.032 129.842 4.448 129.25 4.032C128.658 3.616 127.882 3.408 126.922 3.408C125.962 3.408 125.194 3.616 124.618 4.032C124.042 4.448 123.754 5.032 123.754 5.784C123.754 6.504 124.034 7.08 124.594 7.512C125.17 7.928 125.946 8.136 126.922 8.136ZM135.738 18V15.912L142.41 9.576C142.97 9.048 143.386 8.584 143.658 8.184C143.93 7.784 144.106 7.416 144.186 7.08C144.282 6.728 144.33 6.4 144.33 6.096C144.33 5.328 144.066 4.736 143.538 4.32C143.01 3.888 142.234 3.672 141.21 3.672C140.394 3.672 139.65 3.816 138.978 4.104C138.322 4.392 137.754 4.832 137.274 5.424L135.09 3.744C135.746 2.864 136.626 2.184 137.73 1.704C138.85 1.208 140.098 0.959999 141.474 0.959999C142.69 0.959999 143.746 1.16 144.642 1.56C145.554 1.944 146.25 2.496 146.73 3.216C147.226 3.936 147.474 4.792 147.474 5.784C147.474 6.328 147.402 6.872 147.258 7.416C147.114 7.944 146.842 8.504 146.442 9.096C146.042 9.688 145.458 10.352 144.69 11.088L138.954 16.536L138.306 15.36H148.122V18H135.738ZM152.731 18V2.4L154.099 3.816H149.179V1.2H155.851V18H152.731ZM173.064 18.24C171.736 18.24 170.536 17.904 169.464 17.232C168.408 16.56 167.576 15.584 166.968 14.304C166.36 13.008 166.056 11.44 166.056 9.6C166.056 7.76 166.36 6.2 166.968 4.92C167.576 3.624 168.408 2.64 169.464 1.968C170.536 1.296 171.736 0.959999 173.064 0.959999C174.408 0.959999 175.608 1.296 176.664 1.968C177.72 2.64 178.552 3.624 179.16 4.92C179.784 6.2 180.096 7.76 180.096 9.6C180.096 11.44 179.784 13.008 179.16 14.304C178.552 15.584 177.72 16.56 176.664 17.232C175.608 17.904 174.408 18.24 173.064 18.24ZM173.064 15.528C173.848 15.528 174.528 15.32 175.104 14.904C175.68 14.472 176.128 13.816 176.448 12.936C176.784 12.056 176.952 10.944 176.952 9.6C176.952 8.24 176.784 7.128 176.448 6.264C176.128 5.384 175.68 4.736 175.104 4.32C174.528 3.888 173.848 3.672 173.064 3.672C172.312 3.672 171.64 3.888 171.048 4.32C170.472 4.736 170.016 5.384 169.68 6.264C169.36 7.128 169.2 8.24 169.2 9.6C169.2 10.944 169.36 12.056 169.68 12.936C170.016 13.816 170.472 14.472 171.048 14.904C171.64 15.32 172.312 15.528 173.064 15.528ZM185.016 18L191.952 2.448L192.768 3.84H183.24L184.728 2.328V6.696H181.824V1.2H194.88V3.288L188.352 18H185.016ZM206.37 18V2.4L207.738 3.816H202.818V1.2H209.49V18H206.37ZM218.223 18.24C217.039 18.24 215.879 18.072 214.743 17.736C213.623 17.384 212.679 16.904 211.911 16.296L213.255 13.872C213.863 14.368 214.599 14.768 215.463 15.072C216.327 15.376 217.231 15.528 218.175 15.528C219.295 15.528 220.167 15.304 220.791 14.856C221.415 14.392 221.727 13.768 221.727 12.984C221.727 12.216 221.439 11.608 220.863 11.16C220.287 10.712 219.359 10.488 218.079 10.488H216.543V8.352L221.343 2.64L221.751 3.816H212.727V1.2H224.175V3.288L219.375 9L217.743 8.04H218.679C220.743 8.04 222.287 8.504 223.311 9.432C224.351 10.344 224.871 11.52 224.871 12.96C224.871 13.904 224.631 14.776 224.151 15.576C223.671 16.376 222.935 17.024 221.943 17.52C220.967 18 219.727 18.24 218.223 18.24Z" fill="white"/>
</svg>
