<svg width="228" height="23" viewBox="0 0 228 23" fill="none" xmlns="http://www.w3.org/2000/svg">
<path d="M4.808 15V4.2H7.376V15H4.808ZM0.56 10.8V8.4H11.624V10.8H0.56ZM19.6122 18.24C18.4283 18.24 17.2683 18.072 16.1322 17.736C15.0122 17.384 14.0682 16.904 13.3002 16.296L14.6442 13.872C15.2523 14.368 15.9883 14.768 16.8522 15.072C17.7163 15.376 18.6203 15.528 19.5643 15.528C20.6843 15.528 21.5563 15.304 22.1803 14.856C22.8043 14.392 23.1163 13.768 23.1163 12.984C23.1163 12.216 22.8283 11.608 22.2523 11.16C21.6763 10.712 20.7483 10.488 19.4683 10.488H17.9323V8.352L22.7323 2.64L23.1403 3.816H14.1162V1.2H25.5643V3.288L20.7643 9L19.1323 8.04H20.0683C22.1323 8.04 23.6763 8.504 24.7003 9.432C25.7403 10.344 26.2603 11.52 26.2603 12.96C26.2603 13.904 26.0203 14.776 25.5403 15.576C25.0603 16.376 24.3243 17.024 23.3323 17.52C22.3563 18 21.1163 18.24 19.6122 18.24ZM35.165 18.24C33.773 18.24 32.565 18.032 31.541 17.616C30.517 17.2 29.725 16.616 29.165 15.864C28.605 15.096 28.325 14.2 28.325 13.176C28.325 12.152 28.597 11.288 29.141 10.584C29.685 9.88 30.469 9.344 31.493 8.976C32.517 8.608 33.741 8.424 35.165 8.424C36.589 8.424 37.813 8.608 38.837 8.976C39.877 9.344 40.669 9.888 41.213 10.608C41.773 11.312 42.053 12.168 42.053 13.176C42.053 14.2 41.765 15.096 41.189 15.864C40.629 16.616 39.829 17.2 38.789 17.616C37.765 18.032 36.557 18.24 35.165 18.24ZM35.165 15.792C36.317 15.792 37.229 15.552 37.901 15.072C38.573 14.592 38.909 13.928 38.909 13.08C38.909 12.248 38.573 11.592 37.901 11.112C37.229 10.632 36.317 10.392 35.165 10.392C34.013 10.392 33.109 10.632 32.453 11.112C31.797 11.592 31.469 12.248 31.469 13.08C31.469 13.928 31.797 14.592 32.453 15.072C33.109 15.552 34.013 15.792 35.165 15.792ZM35.165 10.056C33.869 10.056 32.757 9.888 31.829 9.552C30.901 9.2 30.181 8.696 29.669 8.04C29.173 7.368 28.925 6.568 28.925 5.64C28.925 4.68 29.181 3.856 29.693 3.168C30.221 2.464 30.957 1.92 31.901 1.536C32.845 1.152 33.933 0.959999 35.165 0.959999C36.413 0.959999 37.509 1.152 38.453 1.536C39.397 1.92 40.133 2.464 40.661 3.168C41.189 3.856 41.453 4.68 41.453 5.64C41.453 6.568 41.197 7.368 40.685 8.04C40.189 8.696 39.469 9.2 38.525 9.552C37.581 9.888 36.461 10.056 35.165 10.056ZM35.165 8.136C36.157 8.136 36.941 7.928 37.517 7.512C38.093 7.08 38.381 6.504 38.381 5.784C38.381 5.032 38.085 4.448 37.493 4.032C36.901 3.616 36.125 3.408 35.165 3.408C34.205 3.408 33.437 3.616 32.861 4.032C32.285 4.448 31.997 5.032 31.997 5.784C31.997 6.504 32.277 7.08 32.837 7.512C33.413 7.928 34.189 8.136 35.165 8.136Z" fill="black"/>
<path d="M54.8381 22.656C53.8941 21.2 53.1661 19.52 52.6541 17.616C52.1581 15.696 51.9101 13.632 51.9101 11.424C51.9101 9.216 52.1581 7.152 52.6541 5.232C53.1661 3.296 53.8941 1.616 54.8381 0.191999H57.6941C56.7181 1.952 55.9981 3.752 55.5341 5.592C55.0861 7.416 54.8621 9.36 54.8621 11.424C54.8621 13.488 55.0861 15.44 55.5341 17.28C55.9981 19.104 56.7181 20.896 57.6941 22.656H54.8381ZM66.3984 18.24C65.0704 18.24 63.8704 17.904 62.7984 17.232C61.7424 16.56 60.9104 15.584 60.3024 14.304C59.6944 13.008 59.3904 11.44 59.3904 9.6C59.3904 7.76 59.6944 6.2 60.3024 4.92C60.9104 3.624 61.7424 2.64 62.7984 1.968C63.8704 1.296 65.0704 0.959999 66.3984 0.959999C67.7424 0.959999 68.9424 1.296 69.9984 1.968C71.0544 2.64 71.8864 3.624 72.4944 4.92C73.1184 6.2 73.4304 7.76 73.4304 9.6C73.4304 11.44 73.1184 13.008 72.4944 14.304C71.8864 15.584 71.0544 16.56 69.9984 17.232C68.9424 17.904 67.7424 18.24 66.3984 18.24ZM66.3984 15.528C67.1824 15.528 67.8624 15.32 68.4384 14.904C69.0144 14.472 69.4624 13.816 69.7824 12.936C70.1184 12.056 70.2864 10.944 70.2864 9.6C70.2864 8.24 70.1184 7.128 69.7824 6.264C69.4624 5.384 69.0144 4.736 68.4384 4.32C67.8624 3.888 67.1824 3.672 66.3984 3.672C65.6464 3.672 64.9744 3.888 64.3824 4.32C63.8064 4.736 63.3504 5.384 63.0144 6.264C62.6944 7.128 62.5344 8.24 62.5344 9.6C62.5344 10.944 62.6944 12.056 63.0144 12.936C63.3504 13.816 63.8064 14.472 64.3824 14.904C64.9744 15.32 65.6464 15.528 66.3984 15.528ZM81.3228 0.959999C82.8588 0.959999 84.1628 1.288 85.2348 1.944C86.3228 2.584 87.1548 3.52 87.7308 4.752C88.3068 5.984 88.5948 7.504 88.5948 9.312C88.5948 11.232 88.2428 12.856 87.5388 14.184C86.8508 15.512 85.8908 16.52 84.6588 17.208C83.4268 17.896 81.9948 18.24 80.3628 18.24C79.5148 18.24 78.7068 18.152 77.9388 17.976C77.1708 17.8 76.5068 17.528 75.9468 17.16L77.0988 14.808C77.5628 15.112 78.0668 15.328 78.6108 15.456C79.1548 15.568 79.7148 15.624 80.2908 15.624C81.8748 15.624 83.1308 15.136 84.0588 14.16C84.9868 13.184 85.4508 11.744 85.4508 9.84C85.4508 9.536 85.4428 9.184 85.4268 8.784C85.4108 8.368 85.3548 7.952 85.2588 7.536L86.2188 8.592C85.9468 9.248 85.5548 9.8 85.0428 10.248C84.5308 10.68 83.9308 11.008 83.2428 11.232C82.5548 11.456 81.7948 11.568 80.9628 11.568C79.8748 11.568 78.8908 11.36 78.0108 10.944C77.1468 10.512 76.4588 9.912 75.9468 9.144C75.4348 8.36 75.1788 7.448 75.1788 6.408C75.1788 5.288 75.4508 4.328 75.9948 3.528C76.5388 2.712 77.2748 2.08 78.2028 1.632C79.1468 1.184 80.1868 0.959999 81.3228 0.959999ZM81.4908 3.408C80.8508 3.408 80.2828 3.528 79.7868 3.768C79.2908 3.992 78.8988 4.32 78.6108 4.752C78.3388 5.168 78.2028 5.672 78.2028 6.264C78.2028 7.144 78.5068 7.84 79.1148 8.352C79.7228 8.864 80.5388 9.12 81.5628 9.12C82.2348 9.12 82.8268 9 83.3388 8.76C83.8508 8.504 84.2508 8.16 84.5388 7.728C84.8268 7.28 84.9708 6.784 84.9708 6.24C84.9708 5.712 84.8348 5.24 84.5628 4.824C84.2908 4.392 83.8988 4.048 83.3868 3.792C82.8748 3.536 82.2428 3.408 81.4908 3.408ZM93.5165 18L100.452 2.448L101.268 3.84H91.7405L93.2285 2.328V6.696H90.3245V1.2H103.38V3.288L96.8525 18H93.5165ZM107.758 22.656H104.902C105.894 20.896 106.614 19.104 107.062 17.28C107.526 15.44 107.758 13.488 107.758 11.424C107.758 9.36 107.526 7.416 107.062 5.592C106.614 3.752 105.894 1.952 104.902 0.191999H107.758C108.718 1.616 109.446 3.296 109.942 5.232C110.438 7.152 110.686 9.216 110.686 11.424C110.686 13.632 110.438 15.696 109.942 17.616C109.446 19.52 108.718 21.2 107.758 22.656ZM123.335 18V2.4L124.703 3.816H119.783V1.2H126.455V18H123.335ZM132.595 18V2.4L133.963 3.816H129.043V1.2H135.715V18H132.595ZM145.912 18.24C144.52 18.24 143.312 18.032 142.288 17.616C141.264 17.2 140.472 16.616 139.912 15.864C139.352 15.096 139.072 14.2 139.072 13.176C139.072 12.152 139.344 11.288 139.888 10.584C140.432 9.88 141.216 9.344 142.24 8.976C143.264 8.608 144.488 8.424 145.912 8.424C147.336 8.424 148.56 8.608 149.584 8.976C150.624 9.344 151.416 9.888 151.96 10.608C152.52 11.312 152.8 12.168 152.8 13.176C152.8 14.2 152.512 15.096 151.936 15.864C151.376 16.616 150.576 17.2 149.536 17.616C148.512 18.032 147.304 18.24 145.912 18.24ZM145.912 15.792C147.064 15.792 147.976 15.552 148.648 15.072C149.32 14.592 149.656 13.928 149.656 13.08C149.656 12.248 149.32 11.592 148.648 11.112C147.976 10.632 147.064 10.392 145.912 10.392C144.76 10.392 143.856 10.632 143.2 11.112C142.544 11.592 142.216 12.248 142.216 13.08C142.216 13.928 142.544 14.592 143.2 15.072C143.856 15.552 144.76 15.792 145.912 15.792ZM145.912 10.056C144.616 10.056 143.504 9.888 142.576 9.552C141.648 9.2 140.928 8.696 140.416 8.04C139.92 7.368 139.672 6.568 139.672 5.64C139.672 4.68 139.928 3.856 140.44 3.168C140.968 2.464 141.704 1.92 142.648 1.536C143.592 1.152 144.68 0.959999 145.912 0.959999C147.16 0.959999 148.256 1.152 149.2 1.536C150.144 1.92 150.88 2.464 151.408 3.168C151.936 3.856 152.2 4.68 152.2 5.64C152.2 6.568 151.944 7.368 151.432 8.04C150.936 8.696 150.216 9.2 149.272 9.552C148.328 9.888 147.208 10.056 145.912 10.056ZM145.912 8.136C146.904 8.136 147.688 7.928 148.264 7.512C148.84 7.08 149.128 6.504 149.128 5.784C149.128 5.032 148.832 4.448 148.24 4.032C147.648 3.616 146.872 3.408 145.912 3.408C144.952 3.408 144.184 3.616 143.608 4.032C143.032 4.448 142.744 5.032 142.744 5.784C142.744 6.504 143.024 7.08 143.584 7.512C144.16 7.928 144.936 8.136 145.912 8.136ZM168.969 18.24C167.449 18.24 166.145 17.92 165.057 17.28C163.969 16.624 163.137 15.68 162.561 14.448C161.985 13.216 161.697 11.696 161.697 9.888C161.697 7.968 162.041 6.344 162.729 5.016C163.433 3.688 164.401 2.68 165.633 1.992C166.881 1.304 168.313 0.959999 169.929 0.959999C170.777 0.959999 171.585 1.048 172.353 1.224C173.137 1.4 173.801 1.672 174.345 2.04L173.193 4.392C172.729 4.088 172.225 3.88 171.681 3.768C171.153 3.64 170.593 3.576 170.001 3.576C168.417 3.576 167.161 4.064 166.233 5.04C165.305 6.016 164.841 7.456 164.841 9.36C164.841 9.664 164.849 10.024 164.865 10.44C164.881 10.84 164.937 11.248 165.033 11.664L164.073 10.608C164.361 9.952 164.753 9.408 165.249 8.976C165.761 8.528 166.361 8.192 167.049 7.968C167.753 7.744 168.513 7.632 169.329 7.632C170.433 7.632 171.417 7.848 172.281 8.28C173.145 8.696 173.833 9.296 174.345 10.08C174.857 10.848 175.113 11.752 175.113 12.792C175.113 13.896 174.841 14.856 174.297 15.672C173.753 16.488 173.017 17.12 172.089 17.568C171.161 18.016 170.121 18.24 168.969 18.24ZM168.801 15.792C169.441 15.792 170.009 15.68 170.505 15.456C171.001 15.216 171.385 14.88 171.657 14.448C171.945 14.016 172.089 13.512 172.089 12.936C172.089 12.056 171.785 11.36 171.177 10.848C170.569 10.336 169.753 10.08 168.729 10.08C168.057 10.08 167.465 10.208 166.953 10.464C166.457 10.704 166.057 11.04 165.753 11.472C165.465 11.904 165.321 12.4 165.321 12.96C165.321 13.472 165.457 13.944 165.729 14.376C166.001 14.808 166.393 15.152 166.905 15.408C167.433 15.664 168.065 15.792 168.801 15.792ZM176.624 14.184V12.024L184.904 1.2H188.24L180.08 12.024L178.52 11.544H191.84V14.184H176.624ZM185.84 18V14.184L185.936 11.544V8.16H188.864V18H185.84ZM202.834 18L209.77 2.448L210.586 3.84H201.058L202.546 2.328V6.696H199.642V1.2H212.698V3.288L206.17 18H202.834ZM221.551 18.24C220.031 18.24 218.727 17.92 217.639 17.28C216.551 16.624 215.719 15.68 215.143 14.448C214.567 13.216 214.279 11.696 214.279 9.888C214.279 7.968 214.623 6.344 215.311 5.016C216.015 3.688 216.983 2.68 218.215 1.992C219.463 1.304 220.895 0.959999 222.511 0.959999C223.359 0.959999 224.167 1.048 224.935 1.224C225.719 1.4 226.383 1.672 226.927 2.04L225.775 4.392C225.311 4.088 224.807 3.88 224.263 3.768C223.735 3.64 223.175 3.576 222.583 3.576C220.999 3.576 219.743 4.064 218.815 5.04C217.887 6.016 217.423 7.456 217.423 9.36C217.423 9.664 217.431 10.024 217.447 10.44C217.463 10.84 217.519 11.248 217.615 11.664L216.655 10.608C216.943 9.952 217.335 9.408 217.831 8.976C218.343 8.528 218.943 8.192 219.631 7.968C220.335 7.744 221.095 7.632 221.911 7.632C223.015 7.632 223.999 7.848 224.863 8.28C225.727 8.696 226.415 9.296 226.927 10.08C227.439 10.848 227.695 11.752 227.695 12.792C227.695 13.896 227.423 14.856 226.879 15.672C226.335 16.488 225.599 17.12 224.671 17.568C223.743 18.016 222.703 18.24 221.551 18.24ZM221.383 15.792C222.023 15.792 222.591 15.68 223.087 15.456C223.583 15.216 223.967 14.88 224.239 14.448C224.527 14.016 224.671 13.512 224.671 12.936C224.671 12.056 224.367 11.36 223.759 10.848C223.151 10.336 222.335 10.08 221.311 10.08C220.639 10.08 220.047 10.208 219.535 10.464C219.039 10.704 218.639 11.04 218.335 11.472C218.047 11.904 217.903 12.4 217.903 12.96C217.903 13.472 218.039 13.944 218.311 14.376C218.583 14.808 218.975 15.152 219.487 15.408C220.015 15.664 220.647 15.792 221.383 15.792Z" fill="white"/>
</svg>
