<svg width="270" height="118" viewBox="0 0 270 118" fill="none" xmlns="http://www.w3.org/2000/svg">
<path d="M18.88 4.6H23.04V27H18.88V4.6ZM7.296 27H3.136V4.6H7.296V27ZM19.2 17.4H6.944V13.848H19.2V17.4ZM39.4035 27V23.544L39.1795 22.808V16.76C39.1795 15.5867 38.8275 14.68 38.1235 14.04C37.4195 13.3787 36.3528 13.048 34.9235 13.048C33.9635 13.048 33.0142 13.1973 32.0755 13.496C31.1582 13.7947 30.3795 14.2107 29.7395 14.744L28.1715 11.832C29.0888 11.128 30.1768 10.6053 31.4355 10.264C32.7155 9.90133 34.0382 9.72 35.4035 9.72C37.8782 9.72 39.7875 10.3173 41.1315 11.512C42.4968 12.6853 43.1795 14.5093 43.1795 16.984V27H39.4035ZM34.0275 27.224C32.7475 27.224 31.6275 27.0107 30.6675 26.584C29.7075 26.136 28.9608 25.528 28.4275 24.76C27.9155 23.9707 27.6595 23.0853 27.6595 22.104C27.6595 21.144 27.8835 20.28 28.3315 19.512C28.8008 18.744 29.5582 18.136 30.6035 17.688C31.6488 17.24 33.0355 17.016 34.7635 17.016H39.7235V19.672H35.0515C33.6862 19.672 32.7688 19.896 32.2995 20.344C31.8302 20.7707 31.5955 21.304 31.5955 21.944C31.5955 22.6693 31.8835 23.2453 32.4595 23.672C33.0355 24.0987 33.8355 24.312 34.8595 24.312C35.8408 24.312 36.7155 24.088 37.4835 23.64C38.2728 23.192 38.8382 22.5307 39.1795 21.656L39.8515 24.056C39.4675 25.0587 38.7742 25.8373 37.7715 26.392C36.7902 26.9467 35.5422 27.224 34.0275 27.224ZM59.7773 23.608L58.9132 24.568V9.912H62.9132V24.568L61.9533 23.608H70.4013L69.4733 24.568V9.912H73.4733V27H48.2892V9.912H52.2892V24.568L51.3612 23.608H59.7773ZM79.0118 27V9.912H83.0118V27H79.0118ZM81.0278 7.096C80.2811 7.096 79.6624 6.86133 79.1718 6.392C78.7024 5.92267 78.4678 5.35733 78.4678 4.696C78.4678 4.01333 78.7024 3.448 79.1718 3C79.6624 2.53067 80.2811 2.296 81.0278 2.296C81.7744 2.296 82.3824 2.52 82.8518 2.968C83.3424 3.39467 83.5878 3.93867 83.5878 4.6C83.5878 5.304 83.3531 5.90133 82.8838 6.392C82.4144 6.86133 81.7958 7.096 81.0278 7.096ZM109.838 27L103.662 18.808L106.926 16.792L114.542 27H109.838ZM97.5818 27V9.912H101.582V27H97.5818ZM100.398 20.152V16.824H106.19V20.152H100.398ZM107.31 18.936L103.566 18.488L109.838 9.912H114.126L107.31 18.936ZM124.576 27.224C122.827 27.224 121.27 26.8507 119.904 26.104C118.539 25.336 117.462 24.2907 116.672 22.968C115.883 21.6453 115.488 20.1413 115.488 18.456C115.488 16.7493 115.883 15.2453 116.672 13.944C117.462 12.6213 118.539 11.5867 119.904 10.84C121.27 10.0933 122.827 9.72 124.576 9.72C126.347 9.72 127.915 10.0933 129.28 10.84C130.667 11.5867 131.745 12.6107 132.513 13.912C133.302 15.2133 133.697 16.728 133.697 18.456C133.697 20.1413 133.302 21.6453 132.513 22.968C131.745 24.2907 130.667 25.336 129.28 26.104C127.915 26.8507 126.347 27.224 124.576 27.224ZM124.576 23.8C125.558 23.8 126.432 23.5867 127.2 23.16C127.968 22.7333 128.566 22.1147 128.992 21.304C129.44 20.4933 129.665 19.544 129.665 18.456C129.665 17.3467 129.44 16.3973 128.992 15.608C128.566 14.7973 127.968 14.1787 127.2 13.752C126.432 13.3253 125.568 13.112 124.608 13.112C123.627 13.112 122.752 13.3253 121.984 13.752C121.238 14.1787 120.64 14.7973 120.192 15.608C119.744 16.3973 119.52 17.3467 119.52 18.456C119.52 19.544 119.744 20.4933 120.192 21.304C120.64 22.1147 121.238 22.7333 121.984 23.16C122.752 23.5867 123.616 23.8 124.576 23.8ZM137.808 27V9.912H141.808V16.856H150.416V9.912H154.416V27H150.416V20.248H141.808V27H137.808ZM163.489 27V12.344L164.417 13.304H157.473V9.912H173.473V13.304H166.561L167.489 12.344V27H163.489ZM186.902 27V23.544L186.678 22.808V16.76C186.678 15.5867 186.326 14.68 185.622 14.04C184.918 13.3787 183.852 13.048 182.422 13.048C181.462 13.048 180.513 13.1973 179.574 13.496C178.657 13.7947 177.878 14.2107 177.238 14.744L175.67 11.832C176.588 11.128 177.676 10.6053 178.934 10.264C180.214 9.90133 181.537 9.72 182.902 9.72C185.377 9.72 187.286 10.3173 188.63 11.512C189.996 12.6853 190.678 14.5093 190.678 16.984V27H186.902ZM181.526 27.224C180.246 27.224 179.126 27.0107 178.166 26.584C177.206 26.136 176.46 25.528 175.926 24.76C175.414 23.9707 175.158 23.0853 175.158 22.104C175.158 21.144 175.382 20.28 175.83 19.512C176.3 18.744 177.057 18.136 178.102 17.688C179.148 17.24 180.534 17.016 182.262 17.016H187.222V19.672H182.55C181.185 19.672 180.268 19.896 179.798 20.344C179.329 20.7707 179.094 21.304 179.094 21.944C179.094 22.6693 179.382 23.2453 179.958 23.672C180.534 24.0987 181.334 24.312 182.358 24.312C183.34 24.312 184.214 24.088 184.982 23.64C185.772 23.192 186.337 22.5307 186.678 21.656L187.35 24.056C186.966 25.0587 186.273 25.8373 185.27 26.392C184.289 26.9467 183.041 27.224 181.526 27.224ZM208.044 27L201.868 18.808L205.132 16.792L212.748 27H208.044ZM195.788 27V9.912H199.788V27H195.788ZM198.604 20.152V16.824H204.396V20.152H198.604ZM205.516 18.936L201.772 18.488L208.044 9.912H212.332L205.516 18.936ZM219.062 27V12.344L219.99 13.304H213.046V9.912H229.046V13.304H222.134L223.062 12.344V27H219.062ZM232.108 27V9.912H236.108V21.176L245.548 9.912H249.196V27H245.196V15.736L235.788 27H232.108ZM264.956 15.032C264.231 15.032 263.612 14.7867 263.1 14.296C262.588 13.784 262.332 13.144 262.332 12.376C262.332 11.5653 262.588 10.9253 263.1 10.456C263.612 9.96533 264.231 9.72 264.956 9.72C265.682 9.72 266.3 9.96533 266.812 10.456C267.324 10.9253 267.58 11.5653 267.58 12.376C267.58 13.144 267.324 13.784 266.812 14.296C266.3 14.7867 265.682 15.032 264.956 15.032ZM264.956 27.224C264.231 27.224 263.612 26.9787 263.1 26.488C262.588 25.976 262.332 25.336 262.332 24.568C262.332 23.7573 262.588 23.1173 263.1 22.648C263.612 22.1573 264.231 21.912 264.956 21.912C265.682 21.912 266.3 22.1573 266.812 22.648C267.324 23.1173 267.58 23.7573 267.58 24.568C267.58 25.336 267.324 25.976 266.812 26.488C266.3 26.9787 265.682 27.224 264.956 27.224Z" fill="white"/>
<path d="M45.808 73V62.2H48.376V73H45.808ZM41.56 68.8V66.4H52.624V68.8H41.56ZM60.6122 76.24C59.4283 76.24 58.2683 76.072 57.1322 75.736C56.0122 75.384 55.0682 74.904 54.3002 74.296L55.6442 71.872C56.2523 72.368 56.9883 72.768 57.8522 73.072C58.7163 73.376 59.6203 73.528 60.5643 73.528C61.6843 73.528 62.5563 73.304 63.1803 72.856C63.8043 72.392 64.1163 71.768 64.1163 70.984C64.1163 70.216 63.8283 69.608 63.2523 69.16C62.6763 68.712 61.7483 68.488 60.4683 68.488H58.9323V66.352L63.7323 60.64L64.1403 61.816H55.1162V59.2H66.5643V61.288L61.7643 67L60.1323 66.04H61.0683C63.1323 66.04 64.6763 66.504 65.7003 67.432C66.7403 68.344 67.2603 69.52 67.2603 70.96C67.2603 71.904 67.0203 72.776 66.5403 73.576C66.0603 74.376 65.3243 75.024 64.3323 75.52C63.3563 76 62.1163 76.24 60.6122 76.24ZM76.165 76.24C74.773 76.24 73.565 76.032 72.541 75.616C71.517 75.2 70.725 74.616 70.165 73.864C69.605 73.096 69.325 72.2 69.325 71.176C69.325 70.152 69.597 69.288 70.141 68.584C70.685 67.88 71.469 67.344 72.493 66.976C73.517 66.608 74.741 66.424 76.165 66.424C77.589 66.424 78.813 66.608 79.837 66.976C80.877 67.344 81.669 67.888 82.213 68.608C82.773 69.312 83.053 70.168 83.053 71.176C83.053 72.2 82.765 73.096 82.189 73.864C81.629 74.616 80.829 75.2 79.789 75.616C78.765 76.032 77.557 76.24 76.165 76.24ZM76.165 73.792C77.317 73.792 78.229 73.552 78.901 73.072C79.573 72.592 79.909 71.928 79.909 71.08C79.909 70.248 79.573 69.592 78.901 69.112C78.229 68.632 77.317 68.392 76.165 68.392C75.013 68.392 74.109 68.632 73.453 69.112C72.797 69.592 72.469 70.248 72.469 71.08C72.469 71.928 72.797 72.592 73.453 73.072C74.109 73.552 75.013 73.792 76.165 73.792ZM76.165 68.056C74.869 68.056 73.757 67.888 72.829 67.552C71.901 67.2 71.181 66.696 70.669 66.04C70.173 65.368 69.925 64.568 69.925 63.64C69.925 62.68 70.181 61.856 70.693 61.168C71.221 60.464 71.957 59.92 72.901 59.536C73.845 59.152 74.933 58.96 76.165 58.96C77.413 58.96 78.509 59.152 79.453 59.536C80.397 59.92 81.133 60.464 81.661 61.168C82.189 61.856 82.453 62.68 82.453 63.64C82.453 64.568 82.197 65.368 81.685 66.04C81.189 66.696 80.469 67.2 79.525 67.552C78.581 67.888 77.461 68.056 76.165 68.056ZM76.165 66.136C77.157 66.136 77.941 65.928 78.517 65.512C79.093 65.08 79.381 64.504 79.381 63.784C79.381 63.032 79.085 62.448 78.493 62.032C77.901 61.616 77.125 61.408 76.165 61.408C75.205 61.408 74.437 61.616 73.861 62.032C73.285 62.448 72.997 63.032 72.997 63.784C72.997 64.504 73.277 65.08 73.837 65.512C74.413 65.928 75.189 66.136 76.165 66.136Z" fill="black"/>
<path d="M95.8381 80.656C94.8941 79.2 94.1661 77.52 93.6541 75.616C93.1581 73.696 92.9101 71.632 92.9101 69.424C92.9101 67.216 93.1581 65.152 93.6541 63.232C94.1661 61.296 94.8941 59.616 95.8381 58.192H98.6941C97.7181 59.952 96.9981 61.752 96.5341 63.592C96.0861 65.416 95.8621 67.36 95.8621 69.424C95.8621 71.488 96.0861 73.44 96.5341 75.28C96.9981 77.104 97.7181 78.896 98.6941 80.656H95.8381ZM107.398 76.24C106.07 76.24 104.87 75.904 103.798 75.232C102.742 74.56 101.91 73.584 101.302 72.304C100.694 71.008 100.39 69.44 100.39 67.6C100.39 65.76 100.694 64.2 101.302 62.92C101.91 61.624 102.742 60.64 103.798 59.968C104.87 59.296 106.07 58.96 107.398 58.96C108.742 58.96 109.942 59.296 110.998 59.968C112.054 60.64 112.886 61.624 113.494 62.92C114.118 64.2 114.43 65.76 114.43 67.6C114.43 69.44 114.118 71.008 113.494 72.304C112.886 73.584 112.054 74.56 110.998 75.232C109.942 75.904 108.742 76.24 107.398 76.24ZM107.398 73.528C108.182 73.528 108.862 73.32 109.438 72.904C110.014 72.472 110.462 71.816 110.782 70.936C111.118 70.056 111.286 68.944 111.286 67.6C111.286 66.24 111.118 65.128 110.782 64.264C110.462 63.384 110.014 62.736 109.438 62.32C108.862 61.888 108.182 61.672 107.398 61.672C106.646 61.672 105.974 61.888 105.382 62.32C104.806 62.736 104.35 63.384 104.014 64.264C103.694 65.128 103.534 66.24 103.534 67.6C103.534 68.944 103.694 70.056 104.014 70.936C104.35 71.816 104.806 72.472 105.382 72.904C105.974 73.32 106.646 73.528 107.398 73.528ZM122.323 58.96C123.859 58.96 125.163 59.288 126.235 59.944C127.323 60.584 128.155 61.52 128.731 62.752C129.307 63.984 129.595 65.504 129.595 67.312C129.595 69.232 129.243 70.856 128.539 72.184C127.851 73.512 126.891 74.52 125.659 75.208C124.427 75.896 122.995 76.24 121.363 76.24C120.515 76.24 119.707 76.152 118.939 75.976C118.171 75.8 117.507 75.528 116.947 75.16L118.099 72.808C118.563 73.112 119.067 73.328 119.611 73.456C120.155 73.568 120.715 73.624 121.291 73.624C122.875 73.624 124.131 73.136 125.059 72.16C125.987 71.184 126.451 69.744 126.451 67.84C126.451 67.536 126.443 67.184 126.427 66.784C126.411 66.368 126.355 65.952 126.259 65.536L127.219 66.592C126.947 67.248 126.555 67.8 126.043 68.248C125.531 68.68 124.931 69.008 124.243 69.232C123.555 69.456 122.795 69.568 121.963 69.568C120.875 69.568 119.891 69.36 119.011 68.944C118.147 68.512 117.459 67.912 116.947 67.144C116.435 66.36 116.179 65.448 116.179 64.408C116.179 63.288 116.451 62.328 116.995 61.528C117.539 60.712 118.275 60.08 119.203 59.632C120.147 59.184 121.187 58.96 122.323 58.96ZM122.491 61.408C121.851 61.408 121.283 61.528 120.787 61.768C120.291 61.992 119.899 62.32 119.611 62.752C119.339 63.168 119.203 63.672 119.203 64.264C119.203 65.144 119.507 65.84 120.115 66.352C120.723 66.864 121.539 67.12 122.563 67.12C123.235 67.12 123.827 67 124.339 66.76C124.851 66.504 125.251 66.16 125.539 65.728C125.827 65.28 125.971 64.784 125.971 64.24C125.971 63.712 125.835 63.24 125.563 62.824C125.291 62.392 124.899 62.048 124.387 61.792C123.875 61.536 123.243 61.408 122.491 61.408ZM134.516 76L141.452 60.448L142.268 61.84H132.74L134.228 60.328V64.696H131.324V59.2H144.38V61.288L137.852 76H134.516ZM148.758 80.656H145.902C146.894 78.896 147.614 77.104 148.062 75.28C148.526 73.44 148.758 71.488 148.758 69.424C148.758 67.36 148.526 65.416 148.062 63.592C147.614 61.752 146.894 59.952 145.902 58.192H148.758C149.718 59.616 150.446 61.296 150.942 63.232C151.438 65.152 151.686 67.216 151.686 69.424C151.686 71.632 151.438 73.696 150.942 75.616C150.446 77.52 149.718 79.2 148.758 80.656ZM164.335 76V60.4L165.703 61.816H160.783V59.2H167.455V76H164.335ZM173.595 76V60.4L174.963 61.816H170.043V59.2H176.715V76H173.595ZM186.912 76.24C185.52 76.24 184.312 76.032 183.288 75.616C182.264 75.2 181.472 74.616 180.912 73.864C180.352 73.096 180.072 72.2 180.072 71.176C180.072 70.152 180.344 69.288 180.888 68.584C181.432 67.88 182.216 67.344 183.24 66.976C184.264 66.608 185.488 66.424 186.912 66.424C188.336 66.424 189.56 66.608 190.584 66.976C191.624 67.344 192.416 67.888 192.96 68.608C193.52 69.312 193.8 70.168 193.8 71.176C193.8 72.2 193.512 73.096 192.936 73.864C192.376 74.616 191.576 75.2 190.536 75.616C189.512 76.032 188.304 76.24 186.912 76.24ZM186.912 73.792C188.064 73.792 188.976 73.552 189.648 73.072C190.32 72.592 190.656 71.928 190.656 71.08C190.656 70.248 190.32 69.592 189.648 69.112C188.976 68.632 188.064 68.392 186.912 68.392C185.76 68.392 184.856 68.632 184.2 69.112C183.544 69.592 183.216 70.248 183.216 71.08C183.216 71.928 183.544 72.592 184.2 73.072C184.856 73.552 185.76 73.792 186.912 73.792ZM186.912 68.056C185.616 68.056 184.504 67.888 183.576 67.552C182.648 67.2 181.928 66.696 181.416 66.04C180.92 65.368 180.672 64.568 180.672 63.64C180.672 62.68 180.928 61.856 181.44 61.168C181.968 60.464 182.704 59.92 183.648 59.536C184.592 59.152 185.68 58.96 186.912 58.96C188.16 58.96 189.256 59.152 190.2 59.536C191.144 59.92 191.88 60.464 192.408 61.168C192.936 61.856 193.2 62.68 193.2 63.64C193.2 64.568 192.944 65.368 192.432 66.04C191.936 66.696 191.216 67.2 190.272 67.552C189.328 67.888 188.208 68.056 186.912 68.056ZM186.912 66.136C187.904 66.136 188.688 65.928 189.264 65.512C189.84 65.08 190.128 64.504 190.128 63.784C190.128 63.032 189.832 62.448 189.24 62.032C188.648 61.616 187.872 61.408 186.912 61.408C185.952 61.408 185.184 61.616 184.608 62.032C184.032 62.448 183.744 63.032 183.744 63.784C183.744 64.504 184.024 65.08 184.584 65.512C185.16 65.928 185.936 66.136 186.912 66.136ZM209.969 76.24C208.449 76.24 207.145 75.92 206.057 75.28C204.969 74.624 204.137 73.68 203.561 72.448C202.985 71.216 202.697 69.696 202.697 67.888C202.697 65.968 203.041 64.344 203.729 63.016C204.433 61.688 205.401 60.68 206.633 59.992C207.881 59.304 209.313 58.96 210.929 58.96C211.777 58.96 212.585 59.048 213.353 59.224C214.137 59.4 214.801 59.672 215.345 60.04L214.193 62.392C213.729 62.088 213.225 61.88 212.681 61.768C212.153 61.64 211.593 61.576 211.001 61.576C209.417 61.576 208.161 62.064 207.233 63.04C206.305 64.016 205.841 65.456 205.841 67.36C205.841 67.664 205.849 68.024 205.865 68.44C205.881 68.84 205.937 69.248 206.033 69.664L205.073 68.608C205.361 67.952 205.753 67.408 206.249 66.976C206.761 66.528 207.361 66.192 208.049 65.968C208.753 65.744 209.513 65.632 210.329 65.632C211.433 65.632 212.417 65.848 213.281 66.28C214.145 66.696 214.833 67.296 215.345 68.08C215.857 68.848 216.113 69.752 216.113 70.792C216.113 71.896 215.841 72.856 215.297 73.672C214.753 74.488 214.017 75.12 213.089 75.568C212.161 76.016 211.121 76.24 209.969 76.24ZM209.801 73.792C210.441 73.792 211.009 73.68 211.505 73.456C212.001 73.216 212.385 72.88 212.657 72.448C212.945 72.016 213.089 71.512 213.089 70.936C213.089 70.056 212.785 69.36 212.177 68.848C211.569 68.336 210.753 68.08 209.729 68.08C209.057 68.08 208.465 68.208 207.953 68.464C207.457 68.704 207.057 69.04 206.753 69.472C206.465 69.904 206.321 70.4 206.321 70.96C206.321 71.472 206.457 71.944 206.729 72.376C207.001 72.808 207.393 73.152 207.905 73.408C208.433 73.664 209.065 73.792 209.801 73.792ZM217.624 72.184V70.024L225.904 59.2H229.24L221.08 70.024L219.52 69.544H232.84V72.184H217.624ZM226.84 76V72.184L226.936 69.544V66.16H229.864V76H226.84ZM243.834 76L250.77 60.448L251.586 61.84H242.058L243.546 60.328V64.696H240.642V59.2H253.698V61.288L247.17 76H243.834ZM262.551 76.24C261.031 76.24 259.727 75.92 258.639 75.28C257.551 74.624 256.719 73.68 256.143 72.448C255.567 71.216 255.279 69.696 255.279 67.888C255.279 65.968 255.623 64.344 256.311 63.016C257.015 61.688 257.983 60.68 259.215 59.992C260.463 59.304 261.895 58.96 263.511 58.96C264.359 58.96 265.167 59.048 265.935 59.224C266.719 59.4 267.383 59.672 267.927 60.04L266.775 62.392C266.311 62.088 265.807 61.88 265.263 61.768C264.735 61.64 264.175 61.576 263.583 61.576C261.999 61.576 260.743 62.064 259.815 63.04C258.887 64.016 258.423 65.456 258.423 67.36C258.423 67.664 258.431 68.024 258.447 68.44C258.463 68.84 258.519 69.248 258.615 69.664L257.655 68.608C257.943 67.952 258.335 67.408 258.831 66.976C259.343 66.528 259.943 66.192 260.631 65.968C261.335 65.744 262.095 65.632 262.911 65.632C264.015 65.632 264.999 65.848 265.863 66.28C266.727 66.696 267.415 67.296 267.927 68.08C268.439 68.848 268.695 69.752 268.695 70.792C268.695 71.896 268.423 72.856 267.879 73.672C267.335 74.488 266.599 75.12 265.671 75.568C264.743 76.016 263.703 76.24 262.551 76.24ZM262.383 73.792C263.023 73.792 263.591 73.68 264.087 73.456C264.583 73.216 264.967 72.88 265.239 72.448C265.527 72.016 265.671 71.512 265.671 70.936C265.671 70.056 265.367 69.36 264.759 68.848C264.151 68.336 263.335 68.08 262.311 68.08C261.639 68.08 261.047 68.208 260.535 68.464C260.039 68.704 259.639 69.04 259.335 69.472C259.047 69.904 258.903 70.4 258.903 70.96C258.903 71.472 259.039 71.944 259.311 72.376C259.583 72.808 259.975 73.152 260.487 73.408C261.015 73.664 261.647 73.792 262.383 73.792Z" fill="white"/>
<path d="M45.808 110V99.2H48.376V110H45.808ZM41.56 105.8V103.4H52.624V105.8H41.56ZM60.1435 113.24C58.9595 113.24 57.7995 113.072 56.6635 112.736C55.5435 112.384 54.5995 111.904 53.8315 111.296L55.1755 108.872C55.7835 109.368 56.5195 109.768 57.3835 110.072C58.2475 110.376 59.1515 110.528 60.0955 110.528C61.2155 110.528 62.0875 110.304 62.7115 109.856C63.3355 109.392 63.6475 108.768 63.6475 107.984C63.6475 107.216 63.3595 106.608 62.7835 106.16C62.2075 105.712 61.2795 105.488 59.9995 105.488H58.4635V103.352L63.2635 97.64L63.6715 98.816H54.6475V96.2H66.0955V98.288L61.2955 104L59.6635 103.04H60.5995C62.6635 103.04 64.2075 103.504 65.2315 104.432C66.2715 105.344 66.7915 106.52 66.7915 107.96C66.7915 108.904 66.5515 109.776 66.0715 110.576C65.5915 111.376 64.8555 112.024 63.8635 112.52C62.8875 113 61.6475 113.24 60.1435 113.24ZM75.6963 113.24C74.3043 113.24 73.0962 113.032 72.0723 112.616C71.0482 112.2 70.2562 111.616 69.6962 110.864C69.1362 110.096 68.8562 109.2 68.8562 108.176C68.8562 107.152 69.1282 106.288 69.6722 105.584C70.2162 104.88 71.0002 104.344 72.0242 103.976C73.0483 103.608 74.2723 103.424 75.6963 103.424C77.1203 103.424 78.3443 103.608 79.3683 103.976C80.4083 104.344 81.2003 104.888 81.7443 105.608C82.3043 106.312 82.5843 107.168 82.5843 108.176C82.5843 109.2 82.2963 110.096 81.7203 110.864C81.1603 111.616 80.3602 112.2 79.3203 112.616C78.2963 113.032 77.0883 113.24 75.6963 113.24ZM75.6963 110.792C76.8483 110.792 77.7603 110.552 78.4323 110.072C79.1043 109.592 79.4403 108.928 79.4403 108.08C79.4403 107.248 79.1043 106.592 78.4323 106.112C77.7603 105.632 76.8483 105.392 75.6963 105.392C74.5443 105.392 73.6403 105.632 72.9843 106.112C72.3282 106.592 72.0002 107.248 72.0002 108.08C72.0002 108.928 72.3282 109.592 72.9843 110.072C73.6403 110.552 74.5443 110.792 75.6963 110.792ZM75.6963 105.056C74.4003 105.056 73.2883 104.888 72.3602 104.552C71.4322 104.2 70.7122 103.696 70.2002 103.04C69.7042 102.368 69.4562 101.568 69.4562 100.64C69.4562 99.68 69.7122 98.856 70.2242 98.168C70.7522 97.464 71.4883 96.92 72.4323 96.536C73.3763 96.152 74.4643 95.96 75.6963 95.96C76.9443 95.96 78.0403 96.152 78.9843 96.536C79.9283 96.92 80.6643 97.464 81.1923 98.168C81.7203 98.856 81.9843 99.68 81.9843 100.64C81.9843 101.568 81.7283 102.368 81.2162 103.04C80.7203 103.696 80.0003 104.2 79.0563 104.552C78.1123 104.888 76.9923 105.056 75.6963 105.056ZM75.6963 103.136C76.6883 103.136 77.4723 102.928 78.0482 102.512C78.6243 102.08 78.9123 101.504 78.9123 100.784C78.9123 100.032 78.6163 99.448 78.0243 99.032C77.4323 98.616 76.6563 98.408 75.6963 98.408C74.7363 98.408 73.9683 98.616 73.3923 99.032C72.8162 99.448 72.5282 100.032 72.5282 100.784C72.5282 101.504 72.8082 102.08 73.3683 102.512C73.9442 102.928 74.7202 103.136 75.6963 103.136Z" fill="black"/>
<path d="M95.3693 117.656C94.4253 116.2 93.6973 114.52 93.1853 112.616C92.6893 110.696 92.4413 108.632 92.4413 106.424C92.4413 104.216 92.6893 102.152 93.1853 100.232C93.6973 98.296 94.4253 96.616 95.3693 95.192H98.2253C97.2493 96.952 96.5293 98.752 96.0653 100.592C95.6173 102.416 95.3933 104.36 95.3933 106.424C95.3933 108.488 95.6173 110.44 96.0653 112.28C96.5293 114.104 97.2493 115.896 98.2253 117.656H95.3693ZM106.93 113.24C105.602 113.24 104.402 112.904 103.33 112.232C102.274 111.56 101.442 110.584 100.834 109.304C100.226 108.008 99.9216 106.44 99.9216 104.6C99.9216 102.76 100.226 101.2 100.834 99.92C101.442 98.624 102.274 97.64 103.33 96.968C104.402 96.296 105.602 95.96 106.93 95.96C108.274 95.96 109.474 96.296 110.53 96.968C111.586 97.64 112.418 98.624 113.026 99.92C113.65 101.2 113.962 102.76 113.962 104.6C113.962 106.44 113.65 108.008 113.026 109.304C112.418 110.584 111.586 111.56 110.53 112.232C109.474 112.904 108.274 113.24 106.93 113.24ZM106.93 110.528C107.714 110.528 108.394 110.32 108.97 109.904C109.546 109.472 109.994 108.816 110.314 107.936C110.65 107.056 110.818 105.944 110.818 104.6C110.818 103.24 110.65 102.128 110.314 101.264C109.994 100.384 109.546 99.736 108.97 99.32C108.394 98.888 107.714 98.672 106.93 98.672C106.178 98.672 105.506 98.888 104.914 99.32C104.338 99.736 103.882 100.384 103.546 101.264C103.226 102.128 103.066 103.24 103.066 104.6C103.066 105.944 103.226 107.056 103.546 107.936C103.882 108.816 104.338 109.472 104.914 109.904C105.506 110.32 106.178 110.528 106.93 110.528ZM121.854 95.96C123.39 95.96 124.694 96.288 125.766 96.944C126.854 97.584 127.686 98.52 128.262 99.752C128.838 100.984 129.126 102.504 129.126 104.312C129.126 106.232 128.774 107.856 128.07 109.184C127.382 110.512 126.422 111.52 125.19 112.208C123.958 112.896 122.526 113.24 120.894 113.24C120.046 113.24 119.238 113.152 118.47 112.976C117.702 112.8 117.038 112.528 116.478 112.16L117.63 109.808C118.094 110.112 118.598 110.328 119.142 110.456C119.686 110.568 120.246 110.624 120.822 110.624C122.406 110.624 123.662 110.136 124.59 109.16C125.518 108.184 125.982 106.744 125.982 104.84C125.982 104.536 125.974 104.184 125.958 103.784C125.942 103.368 125.886 102.952 125.79 102.536L126.75 103.592C126.478 104.248 126.086 104.8 125.574 105.248C125.062 105.68 124.462 106.008 123.774 106.232C123.086 106.456 122.326 106.568 121.494 106.568C120.406 106.568 119.422 106.36 118.542 105.944C117.678 105.512 116.99 104.912 116.478 104.144C115.966 103.36 115.71 102.448 115.71 101.408C115.71 100.288 115.982 99.328 116.526 98.528C117.07 97.712 117.806 97.08 118.734 96.632C119.678 96.184 120.718 95.96 121.854 95.96ZM122.022 98.408C121.382 98.408 120.814 98.528 120.318 98.768C119.822 98.992 119.43 99.32 119.142 99.752C118.87 100.168 118.734 100.672 118.734 101.264C118.734 102.144 119.038 102.84 119.646 103.352C120.254 103.864 121.07 104.12 122.094 104.12C122.766 104.12 123.358 104 123.87 103.76C124.382 103.504 124.782 103.16 125.07 102.728C125.358 102.28 125.502 101.784 125.502 101.24C125.502 100.712 125.366 100.24 125.094 99.824C124.822 99.392 124.43 99.048 123.918 98.792C123.406 98.536 122.774 98.408 122.022 98.408ZM134.048 113L140.984 97.448L141.8 98.84H132.272L133.76 97.328V101.696H130.856V96.2H143.912V98.288L137.384 113H134.048ZM148.289 117.656H145.433C146.425 115.896 147.145 114.104 147.593 112.28C148.057 110.44 148.289 108.488 148.289 106.424C148.289 104.36 148.057 102.416 147.593 100.592C147.145 98.752 146.425 96.952 145.433 95.192H148.289C149.249 96.616 149.977 98.296 150.473 100.232C150.969 102.152 151.217 104.216 151.217 106.424C151.217 108.632 150.969 110.696 150.473 112.616C149.977 114.52 149.249 116.2 148.289 117.656ZM167.922 113.24C166.53 113.24 165.322 113.032 164.298 112.616C163.274 112.2 162.482 111.616 161.922 110.864C161.362 110.096 161.082 109.2 161.082 108.176C161.082 107.152 161.354 106.288 161.898 105.584C162.442 104.88 163.226 104.344 164.25 103.976C165.274 103.608 166.498 103.424 167.922 103.424C169.346 103.424 170.57 103.608 171.594 103.976C172.634 104.344 173.426 104.888 173.97 105.608C174.53 106.312 174.81 107.168 174.81 108.176C174.81 109.2 174.522 110.096 173.946 110.864C173.386 111.616 172.586 112.2 171.546 112.616C170.522 113.032 169.314 113.24 167.922 113.24ZM167.922 110.792C169.074 110.792 169.986 110.552 170.658 110.072C171.33 109.592 171.666 108.928 171.666 108.08C171.666 107.248 171.33 106.592 170.658 106.112C169.986 105.632 169.074 105.392 167.922 105.392C166.77 105.392 165.866 105.632 165.21 106.112C164.554 106.592 164.226 107.248 164.226 108.08C164.226 108.928 164.554 109.592 165.21 110.072C165.866 110.552 166.77 110.792 167.922 110.792ZM167.922 105.056C166.626 105.056 165.514 104.888 164.586 104.552C163.658 104.2 162.938 103.696 162.426 103.04C161.93 102.368 161.682 101.568 161.682 100.64C161.682 99.68 161.938 98.856 162.45 98.168C162.978 97.464 163.714 96.92 164.658 96.536C165.602 96.152 166.69 95.96 167.922 95.96C169.17 95.96 170.266 96.152 171.21 96.536C172.154 96.92 172.89 97.464 173.418 98.168C173.946 98.856 174.21 99.68 174.21 100.64C174.21 101.568 173.954 102.368 173.442 103.04C172.946 103.696 172.226 104.2 171.282 104.552C170.338 104.888 169.218 105.056 167.922 105.056ZM167.922 103.136C168.914 103.136 169.698 102.928 170.274 102.512C170.85 102.08 171.138 101.504 171.138 100.784C171.138 100.032 170.842 99.448 170.25 99.032C169.658 98.616 168.882 98.408 167.922 98.408C166.962 98.408 166.194 98.616 165.618 99.032C165.042 99.448 164.754 100.032 164.754 100.784C164.754 101.504 165.034 102.08 165.594 102.512C166.17 102.928 166.946 103.136 167.922 103.136ZM176.738 113V110.912L183.41 104.576C183.97 104.048 184.386 103.584 184.658 103.184C184.93 102.784 185.106 102.416 185.186 102.08C185.282 101.728 185.33 101.4 185.33 101.096C185.33 100.328 185.066 99.736 184.538 99.32C184.01 98.888 183.234 98.672 182.21 98.672C181.394 98.672 180.65 98.816 179.978 99.104C179.322 99.392 178.754 99.832 178.274 100.424L176.09 98.744C176.746 97.864 177.626 97.184 178.73 96.704C179.85 96.208 181.098 95.96 182.474 95.96C183.69 95.96 184.746 96.16 185.642 96.56C186.554 96.944 187.25 97.496 187.73 98.216C188.226 98.936 188.474 99.792 188.474 100.784C188.474 101.328 188.402 101.872 188.258 102.416C188.114 102.944 187.842 103.504 187.442 104.096C187.042 104.688 186.458 105.352 185.69 106.088L179.954 111.536L179.306 110.36H189.122V113H176.738ZM193.731 113V97.4L195.099 98.816H190.179V96.2H196.851V113H193.731ZM214.064 113.24C212.736 113.24 211.536 112.904 210.464 112.232C209.408 111.56 208.576 110.584 207.968 109.304C207.36 108.008 207.056 106.44 207.056 104.6C207.056 102.76 207.36 101.2 207.968 99.92C208.576 98.624 209.408 97.64 210.464 96.968C211.536 96.296 212.736 95.96 214.064 95.96C215.408 95.96 216.608 96.296 217.664 96.968C218.72 97.64 219.552 98.624 220.16 99.92C220.784 101.2 221.096 102.76 221.096 104.6C221.096 106.44 220.784 108.008 220.16 109.304C219.552 110.584 218.72 111.56 217.664 112.232C216.608 112.904 215.408 113.24 214.064 113.24ZM214.064 110.528C214.848 110.528 215.528 110.32 216.104 109.904C216.68 109.472 217.128 108.816 217.448 107.936C217.784 107.056 217.952 105.944 217.952 104.6C217.952 103.24 217.784 102.128 217.448 101.264C217.128 100.384 216.68 99.736 216.104 99.32C215.528 98.888 214.848 98.672 214.064 98.672C213.312 98.672 212.64 98.888 212.048 99.32C211.472 99.736 211.016 100.384 210.68 101.264C210.36 102.128 210.2 103.24 210.2 104.6C210.2 105.944 210.36 107.056 210.68 107.936C211.016 108.816 211.472 109.472 212.048 109.904C212.64 110.32 213.312 110.528 214.064 110.528ZM226.016 113L232.952 97.448L233.768 98.84H224.24L225.728 97.328V101.696H222.824V96.2H235.88V98.288L229.352 113H226.016ZM247.37 113V97.4L248.738 98.816H243.818V96.2H250.49V113H247.37ZM259.223 113.24C258.039 113.24 256.879 113.072 255.743 112.736C254.623 112.384 253.679 111.904 252.911 111.296L254.255 108.872C254.863 109.368 255.599 109.768 256.463 110.072C257.327 110.376 258.231 110.528 259.175 110.528C260.295 110.528 261.167 110.304 261.791 109.856C262.415 109.392 262.727 108.768 262.727 107.984C262.727 107.216 262.439 106.608 261.863 106.16C261.287 105.712 260.359 105.488 259.079 105.488H257.543V103.352L262.343 97.64L262.751 98.816H253.727V96.2H265.175V98.288L260.375 104L258.743 103.04H259.679C261.743 103.04 263.287 103.504 264.311 104.432C265.351 105.344 265.871 106.52 265.871 107.96C265.871 108.904 265.631 109.776 265.151 110.576C264.671 111.376 263.935 112.024 262.943 112.52C261.967 113 260.727 113.24 259.223 113.24Z" fill="white"/>
</svg>
