<svg width="109" height="109" viewBox="0 0 109 109" fill="none" xmlns="http://www.w3.org/2000/svg">
<circle cx="80" cy="72" r="29" fill="#3A3A3A"/>
<circle cx="78" cy="70" r="27" fill="#78AEFF"/>
<ellipse cx="78" cy="70.5" rx="17" ry="16.5" fill="#D9D9D9"/>
<path d="M46.31 95.1C40.2967 95.1 34.76 94.1467 29.7 92.24C24.7133 90.26 20.35 87.51 16.61 83.99C12.87 80.3967 9.97333 76.18 7.92 71.34C5.86667 66.5 4.84 61.22 4.84 55.5C4.84 49.78 5.86667 44.5 7.92 39.66C9.97333 34.82 12.87 30.64 16.61 27.12C20.4233 23.5267 24.86 20.7767 29.92 18.87C34.98 16.89 40.5167 15.9 46.53 15.9C53.0567 15.9 58.9233 16.9633 64.13 19.09C69.41 21.2167 73.8467 24.3333 77.44 28.44L68.42 37.24C65.4133 34.2333 62.15 32.0333 58.63 30.64C55.1833 29.1733 51.37 28.44 47.19 28.44C43.1567 28.44 39.4167 29.1 35.97 30.42C32.5233 31.74 29.5533 33.61 27.06 36.03C24.5667 38.45 22.6233 41.31 21.23 44.61C19.91 47.91 19.25 51.54 19.25 55.5C19.25 59.3867 19.91 62.98 21.23 66.28C22.6233 69.58 24.5667 72.4767 27.06 74.97C29.5533 77.39 32.4867 79.26 35.86 80.58C39.2333 81.9 42.9733 82.56 47.08 82.56C50.8933 82.56 54.56 81.9733 58.08 80.8C61.6733 79.5533 65.0833 77.5 68.31 74.64L76.45 85.31C72.4167 88.5367 67.7233 90.9933 62.37 92.68C57.09 94.2933 51.7367 95.1 46.31 95.1ZM62.92 83.44V54.62H76.45V85.31L62.92 83.44Z" fill="#403F3F"/>
<path d="M42.1 86C36.6333 86 31.6 85.1333 27 83.4C22.4667 81.6 18.5 79.1 15.1 75.9C11.7 72.6333 9.06667 68.8 7.2 64.4C5.33333 60 4.4 55.2 4.4 50C4.4 44.8 5.33333 40 7.2 35.6C9.06667 31.2 11.7 27.4 15.1 24.2C18.5667 20.9333 22.6 18.4333 27.2 16.7C31.8 14.9 36.8333 14 42.3 14C48.2333 14 53.5667 14.9667 58.3 16.9C63.1 18.8333 67.1333 21.6667 70.4 25.4L62.2 33.4C59.4667 30.6667 56.5 28.6667 53.3 27.4C50.1667 26.0667 46.7 25.4 42.9 25.4C39.2333 25.4 35.8333 26 32.7 27.2C29.5667 28.4 26.8667 30.1 24.6 32.3C22.3333 34.5 20.5667 37.1 19.3 40.1C18.1 43.1 17.5 46.4 17.5 50C17.5 53.5333 18.1 56.8 19.3 59.8C20.5667 62.8 22.3333 65.4333 24.6 67.7C26.8667 69.9 29.5333 71.6 32.6 72.8C35.6667 74 39.0667 74.6 42.8 74.6C46.2667 74.6 49.6 74.0667 52.8 73C56.0667 71.8667 59.1667 70 62.1 67.4L69.5 77.1C65.8333 80.0333 61.5667 82.2667 56.7 83.8C51.9 85.2667 47.0333 86 42.1 86ZM57.2 75.4V49.2H69.5V77.1L57.2 75.4Z" fill="#F7EB80"/>
</svg>
