<svg width="234" height="234" viewBox="0 0 234 234" fill="none" xmlns="http://www.w3.org/2000/svg">
<path fill-rule="evenodd" clip-rule="evenodd" d="M232.596 135.182C233.275 130.829 233.714 126.397 233.899 121.899L112.101 0.100708C107.603 0.286011 103.171 0.725098 98.8185 1.40417L232.596 135.182ZM97.6008 1.60083C93.2751 2.32263 89.0298 3.28174 84.8786 4.46436L229.536 149.121C230.718 144.97 231.677 140.725 232.399 136.399L97.6008 1.60083ZM71.564 9.14978C75.5301 7.47693 79.6077 6.01636 83.7825 4.78247L229.217 150.218C227.984 154.392 226.523 158.47 224.85 162.436L71.564 9.14978ZM10.8113 67.8113C9.02782 71.655 7.44688 75.6118 6.08221 79.668L154.332 227.918C158.388 226.553 162.345 224.972 166.189 223.189L10.8113 67.8113ZM177.29 217.29C174.012 219.266 170.629 221.084 167.151 222.737L11.2632 66.8489C12.9156 63.3712 14.7345 59.988 16.7096 56.7096L177.29 217.29ZM178.17 216.755C180.955 215.044 183.663 213.219 186.287 211.287L22.7127 47.7128C20.7809 50.3372 18.9561 53.0452 17.2446 55.8303L178.17 216.755ZM23.3155 46.9012L187.099 210.685C190.056 208.469 192.904 206.116 195.635 203.635L30.3646 38.3646C27.8844 41.0956 25.5316 43.9442 23.3155 46.9012ZM31.0408 37.6265C33.3746 35.1002 35.8185 32.6771 38.3647 30.3646L203.635 195.635C201.323 198.182 198.9 200.625 196.374 202.959L31.0408 37.6265ZM39.1088 29.6946L204.305 194.891C206.923 191.96 209.395 188.895 211.71 185.71L48.2903 22.2903C45.1047 24.6053 42.0405 27.0773 39.1088 29.6946ZM218.403 175.403C216.519 178.667 214.482 181.832 212.302 184.888L49.1125 21.6982C52.1679 19.5178 55.3326 17.4807 58.5967 15.5967L218.403 175.403ZM218.918 174.503C220.941 170.924 222.782 167.228 224.427 163.427L70.5732 9.57312C66.7723 11.218 63.0759 13.0587 59.4967 15.0825L218.918 174.503ZM153.27 228.27L5.73044 80.7305C4.50928 84.4794 3.47227 88.3114 2.63016 92.2159L141.784 231.37C145.689 230.528 149.521 229.491 153.27 228.27ZM140.616 231.616L2.38441 93.3844C1.47159 97.8381 0.811813 102.384 0.420807 107.007L126.993 233.579C131.616 233.188 136.162 232.528 140.616 231.616ZM0 117C0 114.08 0.10701 111.184 0.317307 108.317L125.683 233.683C122.816 233.893 119.92 234 117 234C114.364 234 111.748 233.913 109.155 233.741L0.25882 124.845C0.0871887 122.252 0 119.636 0 117ZM0.36972 126.37L107.63 233.63C100.813 233.09 94.1593 231.965 87.7207 230.306L3.69356 146.279C2.03459 139.841 0.909943 133.188 0.36972 126.37ZM227.834 79.4197C216.178 45.0321 188.968 17.8219 154.58 6.16602L227.834 79.4197ZM152.475 5.47461C146.015 3.42188 139.313 1.91467 132.422 1.00732L232.993 101.578C232.085 94.687 230.578 87.9847 228.525 81.5254L152.475 5.47461ZM117 0C121.671 0 126.278 0.273804 130.806 0.80603L233.194 103.194C233.726 107.722 234 112.329 234 117C234 118.182 233.982 119.36 233.948 120.533L113.467 0.0523682C114.64 0.0175781 115.818 0 117 0ZM85.7917 229.792L4.20831 148.208C15.122 187.739 46.2607 218.878 85.7917 229.792Z" fill="url(#paint0_linear_23_48)"/>
<defs>
<linearGradient id="paint0_linear_23_48" x1="117" y1="0" x2="117" y2="234" gradientUnits="userSpaceOnUse">
<stop stop-color="#26A4EB"/>
<stop offset="1" stop-color="#FFD600"/>
</linearGradient>
</defs>
</svg>
