<svg width="265" height="26" viewBox="0 0 265 26" fill="none" xmlns="http://www.w3.org/2000/svg">
<path d="M15.88 2.6H20.04V25H15.88V2.6ZM4.296 25H0.136V2.6H4.296V25ZM16.2 15.4H3.944V11.848H16.2V15.4ZM36.4035 25V21.544L36.1795 20.808V14.76C36.1795 13.5867 35.8275 12.68 35.1235 12.04C34.4195 11.3787 33.3528 11.048 31.9235 11.048C30.9635 11.048 30.0142 11.1973 29.0755 11.496C28.1582 11.7947 27.3795 12.2107 26.7395 12.744L25.1715 9.832C26.0888 9.128 27.1768 8.60533 28.4355 8.264C29.7155 7.90133 31.0382 7.72 32.4035 7.72C34.8782 7.72 36.7875 8.31733 38.1315 9.512C39.4968 10.6853 40.1795 12.5093 40.1795 14.984V25H36.4035ZM31.0275 25.224C29.7475 25.224 28.6275 25.0107 27.6675 24.584C26.7075 24.136 25.9608 23.528 25.4275 22.76C24.9155 21.9707 24.6595 21.0853 24.6595 20.104C24.6595 19.144 24.8835 18.28 25.3315 17.512C25.8008 16.744 26.5582 16.136 27.6035 15.688C28.6488 15.24 30.0355 15.016 31.7635 15.016H36.7235V17.672H32.0515C30.6862 17.672 29.7688 17.896 29.2995 18.344C28.8302 18.7707 28.5955 19.304 28.5955 19.944C28.5955 20.6693 28.8835 21.2453 29.4595 21.672C30.0355 22.0987 30.8355 22.312 31.8595 22.312C32.8408 22.312 33.7155 22.088 34.4835 21.64C35.2728 21.192 35.8382 20.5307 36.1795 19.656L36.8515 22.056C36.4675 23.0587 35.7742 23.8373 34.7715 24.392C33.7902 24.9467 32.5422 25.224 31.0275 25.224ZM56.7773 21.608L55.9132 22.568V7.912H59.9132V22.568L58.9533 21.608H67.4013L66.4733 22.568V7.912H70.4733V25H45.2892V7.912H49.2892V22.568L48.3612 21.608H56.7773ZM76.0118 25V7.912H80.0118V25H76.0118ZM78.0278 5.096C77.2811 5.096 76.6624 4.86133 76.1718 4.392C75.7024 3.92267 75.4678 3.35733 75.4678 2.696C75.4678 2.01333 75.7024 1.448 76.1718 0.999998C76.6624 0.530666 77.2811 0.296 78.0278 0.296C78.7744 0.296 79.3824 0.519999 79.8518 0.967999C80.3424 1.39467 80.5878 1.93867 80.5878 2.6C80.5878 3.304 80.3531 3.90133 79.8838 4.392C79.4144 4.86133 78.7958 5.096 78.0278 5.096ZM106.838 25L100.662 16.808L103.926 14.792L111.542 25H106.838ZM94.5818 25V7.912H98.5818V25H94.5818ZM97.3978 18.152V14.824H103.19V18.152H97.3978ZM104.31 16.936L100.566 16.488L106.838 7.912H111.126L104.31 16.936ZM121.576 25.224C119.827 25.224 118.27 24.8507 116.904 24.104C115.539 23.336 114.462 22.2907 113.672 20.968C112.883 19.6453 112.488 18.1413 112.488 16.456C112.488 14.7493 112.883 13.2453 113.672 11.944C114.462 10.6213 115.539 9.58667 116.904 8.84C118.27 8.09333 119.827 7.72 121.576 7.72C123.347 7.72 124.915 8.09333 126.28 8.84C127.667 9.58667 128.745 10.6107 129.513 11.912C130.302 13.2133 130.697 14.728 130.697 16.456C130.697 18.1413 130.302 19.6453 129.513 20.968C128.745 22.2907 127.667 23.336 126.28 24.104C124.915 24.8507 123.347 25.224 121.576 25.224ZM121.576 21.8C122.558 21.8 123.432 21.5867 124.2 21.16C124.968 20.7333 125.566 20.1147 125.992 19.304C126.44 18.4933 126.665 17.544 126.665 16.456C126.665 15.3467 126.44 14.3973 125.992 13.608C125.566 12.7973 124.968 12.1787 124.2 11.752C123.432 11.3253 122.568 11.112 121.608 11.112C120.627 11.112 119.752 11.3253 118.984 11.752C118.238 12.1787 117.64 12.7973 117.192 13.608C116.744 14.3973 116.52 15.3467 116.52 16.456C116.52 17.544 116.744 18.4933 117.192 19.304C117.64 20.1147 118.238 20.7333 118.984 21.16C119.752 21.5867 120.616 21.8 121.576 21.8ZM134.808 25V7.912H138.808V14.856H147.416V7.912H151.416V25H147.416V18.248H138.808V25H134.808ZM160.489 25V10.344L161.417 11.304H154.473V7.912H170.473V11.304H163.561L164.489 10.344V25H160.489ZM183.902 25V21.544L183.678 20.808V14.76C183.678 13.5867 183.326 12.68 182.622 12.04C181.918 11.3787 180.852 11.048 179.422 11.048C178.462 11.048 177.513 11.1973 176.574 11.496C175.657 11.7947 174.878 12.2107 174.238 12.744L172.67 9.832C173.588 9.128 174.676 8.60533 175.934 8.264C177.214 7.90133 178.537 7.72 179.902 7.72C182.377 7.72 184.286 8.31733 185.63 9.512C186.996 10.6853 187.678 12.5093 187.678 14.984V25H183.902ZM178.526 25.224C177.246 25.224 176.126 25.0107 175.166 24.584C174.206 24.136 173.46 23.528 172.926 22.76C172.414 21.9707 172.158 21.0853 172.158 20.104C172.158 19.144 172.382 18.28 172.83 17.512C173.3 16.744 174.057 16.136 175.102 15.688C176.148 15.24 177.534 15.016 179.262 15.016H184.222V17.672H179.55C178.185 17.672 177.268 17.896 176.798 18.344C176.329 18.7707 176.094 19.304 176.094 19.944C176.094 20.6693 176.382 21.2453 176.958 21.672C177.534 22.0987 178.334 22.312 179.358 22.312C180.34 22.312 181.214 22.088 181.982 21.64C182.772 21.192 183.337 20.5307 183.678 19.656L184.35 22.056C183.966 23.0587 183.273 23.8373 182.27 24.392C181.289 24.9467 180.041 25.224 178.526 25.224ZM205.044 25L198.868 16.808L202.132 14.792L209.748 25H205.044ZM192.788 25V7.912H196.788V25H192.788ZM195.604 18.152V14.824H201.396V18.152H195.604ZM202.516 16.936L198.772 16.488L205.044 7.912H209.332L202.516 16.936ZM216.062 25V10.344L216.99 11.304H210.046V7.912H226.046V11.304H219.134L220.062 10.344V25H216.062ZM229.108 25V7.912H233.108V19.176L242.548 7.912H246.196V25H242.196V13.736L232.788 25H229.108ZM261.956 13.032C261.231 13.032 260.612 12.7867 260.1 12.296C259.588 11.784 259.332 11.144 259.332 10.376C259.332 9.56533 259.588 8.92533 260.1 8.456C260.612 7.96533 261.231 7.72 261.956 7.72C262.682 7.72 263.3 7.96533 263.812 8.456C264.324 8.92533 264.58 9.56533 264.58 10.376C264.58 11.144 264.324 11.784 263.812 12.296C263.3 12.7867 262.682 13.032 261.956 13.032ZM261.956 25.224C261.231 25.224 260.612 24.9787 260.1 24.488C259.588 23.976 259.332 23.336 259.332 22.568C259.332 21.7573 259.588 21.1173 260.1 20.648C260.612 20.1573 261.231 19.912 261.956 19.912C262.682 19.912 263.3 20.1573 263.812 20.648C264.324 21.1173 264.58 21.7573 264.58 22.568C264.58 23.336 264.324 23.976 263.812 24.488C263.3 24.9787 262.682 25.224 261.956 25.224Z" fill="white"/>
</svg>
