<svg width="49" height="49" viewBox="0 0 49 49" fill="none" xmlns="http://www.w3.org/2000/svg">
<path d="M41.3438 0H7.65625C3.42782 0 0 3.42782 0 7.65625V41.3438C0 45.5722 3.42782 49 7.65625 49H41.3438C45.5722 49 49 45.5722 49 41.3438V7.65625C49 3.42782 45.5722 0 41.3438 0Z" fill="#030C10"/>
<path d="M36.75 24.5C36.75 17.7625 31.2375 12.25 24.5 12.25C17.7625 12.25 12.25 17.7625 12.25 24.5C12.25 30.625 16.6906 35.6781 22.5094 36.5969V28.0219H19.4469V24.5H22.5094V21.7437C22.5094 18.6812 24.3469 16.9969 27.1031 16.9969C28.4813 16.9969 29.8594 17.3031 29.8594 17.3031V20.3656H28.3281C26.7969 20.3656 26.3375 21.2844 26.3375 22.2031V24.5H29.7062L29.0938 28.0219H26.1844V36.75C32.3094 35.8312 36.75 30.625 36.75 24.5Z" fill="white"/>
</svg>
