<svg width="49" height="49" viewBox="0 0 49 49" fill="none" xmlns="http://www.w3.org/2000/svg">
<path d="M41.3438 0H7.65625C3.42782 0 0 3.42782 0 7.65625V41.3438C0 45.5722 3.42782 49 7.65625 49H41.3438C45.5722 49 49 45.5722 49 41.3438V7.65625C49 3.42782 45.5722 0 41.3438 0Z" fill="#030C10"/>
<path d="M24.5 14.0875C27.8688 14.0875 28.3281 14.0875 29.7063 14.0875C30.9313 14.0875 31.5438 14.3938 32.0031 14.5469C32.6156 14.8532 33.075 15.0063 33.5344 15.4657C33.9938 15.925 34.3 16.3844 34.4531 16.9969C34.6063 17.4563 34.7594 18.0688 34.9125 19.2938C34.9125 20.6719 34.9125 20.9782 34.9125 24.5C34.9125 28.0219 34.9125 28.3282 34.9125 29.7063C34.9125 30.9313 34.6063 31.5438 34.4531 32.0032C34.1469 32.6157 33.9938 33.075 33.5344 33.5344C33.075 33.9938 32.6156 34.3 32.0031 34.4532C31.5438 34.6063 30.9313 34.7594 29.7063 34.9125C28.3281 34.9125 28.0219 34.9125 24.5 34.9125C20.9781 34.9125 20.6719 34.9125 19.2938 34.9125C18.0688 34.9125 17.4563 34.6063 16.9969 34.4532C16.3844 34.1469 15.925 33.9938 15.4656 33.5344C15.0063 33.075 14.7 32.6157 14.5469 32.0032C14.3938 31.5438 14.2406 30.9313 14.0875 29.7063C14.0875 28.3282 14.0875 28.0219 14.0875 24.5C14.0875 20.9782 14.0875 20.6719 14.0875 19.2938C14.0875 18.0688 14.3938 17.4563 14.5469 16.9969C14.8531 16.3844 15.0063 15.925 15.4656 15.4657C15.925 15.0063 16.3844 14.7 16.9969 14.5469C17.4563 14.3938 18.0688 14.2406 19.2938 14.0875C20.6719 14.0875 21.1313 14.0875 24.5 14.0875ZM24.5 11.7906C20.9781 11.7906 20.6719 11.7906 19.2938 11.7906C17.9156 11.7906 16.9969 12.0969 16.2313 12.4032C15.4656 12.7094 14.7 13.1688 13.9344 13.9344C13.1688 14.7 12.8625 15.3125 12.4031 16.2313C12.0969 16.9969 11.9438 17.9157 11.7906 19.2938C11.7906 20.6719 11.7906 21.1313 11.7906 24.5C11.7906 28.0219 11.7906 28.3282 11.7906 29.7063C11.7906 31.0844 12.0969 32.0032 12.4031 32.7688C12.7094 33.5344 13.1688 34.3 13.9344 35.0657C14.7 35.8313 15.3125 36.1375 16.2313 36.5969C16.9969 36.9032 17.9156 37.0563 19.2938 37.2094C20.6719 37.2094 21.1313 37.2094 24.5 37.2094C27.8688 37.2094 28.3281 37.2094 29.7063 37.2094C31.0844 37.2094 32.0031 36.9032 32.7688 36.5969C33.5344 36.2907 34.3 35.8313 35.0656 35.0657C35.8313 34.3 36.1375 33.6875 36.5969 32.7688C36.9031 32.0032 37.0562 31.0844 37.2094 29.7063C37.2094 28.3282 37.2094 27.8688 37.2094 24.5C37.2094 21.1313 37.2094 20.6719 37.2094 19.2938C37.2094 17.9157 36.9031 16.9969 36.5969 16.2313C36.2906 15.4657 35.8313 14.7 35.0656 13.9344C34.3 13.1688 33.6875 12.8625 32.7688 12.4032C32.0031 12.0969 31.0844 11.9438 29.7063 11.7906C28.3281 11.7906 28.0219 11.7906 24.5 11.7906Z" fill="white"/>
<path d="M24.5 17.9156C20.825 17.9156 17.9156 20.825 17.9156 24.5C17.9156 28.175 20.825 31.0844 24.5 31.0844C28.175 31.0844 31.0844 28.175 31.0844 24.5C31.0844 20.825 28.175 17.9156 24.5 17.9156ZM24.5 28.7875C22.2031 28.7875 20.2125 26.95 20.2125 24.5C20.2125 22.2032 22.05 20.2125 24.5 20.2125C26.7969 20.2125 28.7875 22.05 28.7875 24.5C28.7875 26.7969 26.7969 28.7875 24.5 28.7875Z" fill="white"/>
<path d="M31.2375 19.2938C32.0832 19.2938 32.7688 18.6082 32.7688 17.7625C32.7688 16.9168 32.0832 16.2313 31.2375 16.2313C30.3918 16.2313 29.7063 16.9168 29.7063 17.7625C29.7063 18.6082 30.3918 19.2938 31.2375 19.2938Z" fill="white"/>
</svg>
