<svg width="49" height="49" viewBox="0 0 49 49" fill="none" xmlns="http://www.w3.org/2000/svg">
<path d="M41.3438 0H7.65625C3.42782 0 0 3.42782 0 7.65625V41.3438C0 45.5722 3.42782 49 7.65625 49H41.3438C45.5722 49 49 45.5722 49 41.3438V7.65625C49 3.42782 45.5722 0 41.3438 0Z" fill="#030C10"/>
<path d="M12.403 24.0533C18.9797 21.188 23.3651 19.299 25.5594 18.3863C31.8245 15.7804 33.1263 15.3278 33.9749 15.3126C34.1615 15.3095 34.5788 15.3558 34.8491 15.5751C35.0773 15.7603 35.1401 16.0105 35.1701 16.186C35.2002 16.3616 35.2376 16.7616 35.2079 17.0741C34.8683 20.6414 33.3993 29.2982 32.6519 33.2935C32.3357 34.9841 31.713 35.551 31.1102 35.6065C29.8001 35.727 28.8053 34.7407 27.5364 33.9089C25.5508 32.6073 24.4291 31.7971 22.5018 30.527C20.2744 29.0592 21.7183 28.2525 22.9877 26.9341C23.3199 26.589 29.0922 21.3387 29.2039 20.8624C29.2179 20.8028 29.2308 20.5808 29.0989 20.4635C28.967 20.3463 28.7723 20.3864 28.6318 20.4183C28.4327 20.4635 25.2607 22.56 19.116 26.7079C18.2156 27.3262 17.4001 27.6274 16.6694 27.6116C15.8639 27.5942 14.3145 27.1562 13.1626 26.7817C11.7498 26.3225 10.6269 26.0797 10.7247 25.2997C10.7756 24.8935 11.3351 24.478 12.403 24.0533Z" fill="white"/>
</svg>
